<svg xmlns="http://www.w3.org/2000/svg" viewBox="0 0 920 620" role="img" aria-labelledby="title desc">
  <title id="title">Civil engineering site plan illustration</title>
  <desc id="desc">A stylised subdivision, roads, drainage lines, contour lines and approval markers.</desc>
  <rect width="920" height="620" rx="8" fill="#f7f8f4"/>
  <defs>
    <pattern id="grid" width="38" height="38" patternUnits="userSpaceOnUse">
      <path d="M38 0H0v38" fill="none" stroke="#d9e4df" stroke-width="1"/>
    </pattern>
  </defs>
  <rect x="24" y="24" width="872" height="572" rx="6" fill="url(#grid)"/>
  <path d="M97 510C210 436 271 380 349 288c68-81 156-120 256-155 79-27 143-56 219-105" fill="none" stroke="#17201f" stroke-width="34" stroke-linecap="round"/>
  <path d="M97 510C210 436 271 380 349 288c68-81 156-120 256-155 79-27 143-56 219-105" fill="none" stroke="#f7f8f4" stroke-width="4" stroke-dasharray="16 16" stroke-linecap="round"/>
  <path d="M111 188c82 19 143 16 217-10 63-22 126-17 190 16 76 39 151 44 250 9" fill="none" stroke="#6ec7bd" stroke-width="7" stroke-linecap="round"/>
  <path d="M93 256c90 35 174 35 252 0 68-31 126-26 194 17 77 49 151 57 271 29" fill="none" stroke="#6ec7bd" stroke-width="3" stroke-linecap="round" opacity=".65"/>
  <g fill="#ffffff" stroke="#0e6f68" stroke-width="3">
    <path d="M203 111h116v92H203z"/>
    <path d="M337 89h118v91H337z"/>
    <path d="M478 217h124v90H478z"/>
    <path d="M615 172h120v89H615z"/>
    <path d="M174 323h116v92H174z"/>
    <path d="M317 378h118v91H317z"/>
    <path d="M458 334h124v90H458z"/>
    <path d="M609 361h120v93H609z"/>
  </g>
  <g fill="#7f9d61" opacity=".22">
    <circle cx="728" cy="91" r="48"/>
    <circle cx="779" cy="132" r="34"/>
    <circle cx="141" cy="124" r="38"/>
    <circle cx="755" cy="500" r="56"/>
  </g>
  <g>
    <rect x="91" y="64" width="168" height="42" rx="5" fill="#17201f"/>
    <text x="113" y="91" fill="#ffffff" font-family="Arial, Helvetica, sans-serif" font-size="18" font-weight="700">RPEQ review</text>
    <circle cx="265" cy="85" r="16" fill="#6ec7bd"/>
    <path d="m257 85 6 6 11-13" fill="none" stroke="#17201f" stroke-width="3" stroke-linecap="round" stroke-linejoin="round"/>
  </g>
  <g>
    <rect x="583" y="493" width="214" height="48" rx="5" fill="#0e6f68"/>
    <text x="607" y="523" fill="#ffffff" font-family="Arial, Helvetica, sans-serif" font-size="18" font-weight="700">Operational works</text>
  </g>
  <path d="M85 562h275" stroke="#c86f3e" stroke-width="7" stroke-linecap="round"/>
  <path d="M86 562h132" stroke="#17201f" stroke-width="7" stroke-linecap="round"/>
  <text x="86" y="548" fill="#17201f" font-family="Arial, Helvetica, sans-serif" font-size="15" font-weight="700">Feasibility → Approval → Delivery</text>
</svg>
